<svg width="16" height="16" viewBox="0 0 16 16" fill="none" xmlns="http://www.w3.org/2000/svg">
<path d="M14.581 0.601562H1.41977C0.968963 0.601562 0.603516 0.96701 0.603516 1.41781V14.5791C0.603516 15.0299 0.968963 15.3953 1.41977 15.3953H14.581C15.0318 15.3953 15.3973 15.0299 15.3973 14.5791V1.41781C15.3973 0.96701 15.0318 0.601562 14.581 0.601562Z" fill="#3D5A98"/>
<path d="M10.8101 15.3949V9.66614H12.7326L13.0201 7.43364H10.8101V6.00865C10.8101 5.3624 10.9901 4.92114 11.9164 4.92114H13.0989V2.92114C12.5263 2.86158 11.9508 2.8332 11.3751 2.83615C9.67264 2.83615 8.50014 3.87364 8.50014 5.7874V7.43364H6.57764V9.66614H8.50014V15.3949H10.8101Z" fill="white"/>
</svg>
