<svg width="16" height="16" viewBox="0 0 16 16" fill="none" xmlns="http://www.w3.org/2000/svg">
<path d="M6.82116 6.82046C7.42591 6.21575 8.23996 5.86661 9.09491 5.84527C9.94987 5.82393 10.7803 6.13201 11.4145 6.70579L11.5352 6.82046L13.4205 8.70646C14.0345 9.32157 14.384 10.1522 14.3945 11.0212C14.4049 11.8903 14.0756 12.7291 13.4765 13.3588C12.8775 13.9885 12.0562 14.3594 11.1877 14.3923C10.3192 14.4253 9.47216 14.1177 8.82716 13.5351L8.70716 13.4205L7.29249 12.0058C7.17293 11.8858 7.10351 11.7248 7.09834 11.5555C7.09317 11.3862 7.15264 11.2213 7.26466 11.0943C7.37668 10.9672 7.53286 10.8876 7.70148 10.8715C7.87009 10.8555 8.0385 10.9042 8.17249 11.0078L8.23516 11.0631L9.64983 12.4778C10.0165 12.8466 10.5125 13.0581 11.0326 13.0674C11.5526 13.0766 12.0558 12.8829 12.4354 12.5273C12.815 12.1718 13.0412 11.6823 13.0659 11.1627C13.0906 10.6432 12.912 10.1345 12.5678 9.74446L12.4778 9.64913L10.5925 7.76379C10.4068 7.57804 10.1863 7.43069 9.9436 7.33016C9.70093 7.22963 9.44083 7.17789 9.17816 7.17789C8.91549 7.17789 8.65539 7.22963 8.41271 7.33016C8.17004 7.43069 7.94955 7.57804 7.76383 7.76379C7.63873 7.8888 7.4691 7.95899 7.29226 7.95893C7.11541 7.95886 6.94583 7.88855 6.82083 7.76346C6.69582 7.63836 6.62563 7.46874 6.62569 7.29189C6.62575 7.11504 6.69607 6.94546 6.82116 6.82046ZM2.57849 2.57779C3.18325 1.97308 3.99729 1.62394 4.85225 1.6026C5.7072 1.58126 6.53765 1.88934 7.17183 2.46313L7.29249 2.57779L8.70649 3.99312C8.82606 4.1131 8.89548 4.27408 8.90065 4.44338C8.90581 4.61268 8.84635 4.7776 8.73433 4.90464C8.62231 5.03169 8.46613 5.11133 8.29751 5.12739C8.1289 5.14345 7.96049 5.09473 7.82649 4.99113L7.76383 4.93579L6.34983 3.52179C5.98247 3.15683 5.48789 2.94858 4.97012 2.94084C4.45235 2.93311 3.95176 3.12649 3.57367 3.48032C3.19558 3.83414 2.96946 4.32082 2.94288 4.83796C2.9163 5.35511 3.09133 5.8624 3.43116 6.25313L3.52116 6.34913L5.40716 8.23512C5.78222 8.61007 6.29083 8.8207 6.82116 8.8207C7.35149 8.8207 7.8601 8.61007 8.23516 8.23512C8.29706 8.17318 8.37055 8.12404 8.45143 8.0905C8.53232 8.05697 8.61903 8.03969 8.70659 8.03966C8.79416 8.03963 8.88087 8.05684 8.96178 8.09032C9.04269 8.12381 9.11622 8.1729 9.17816 8.23479C9.2401 8.29669 9.28924 8.37018 9.32278 8.45107C9.35632 8.53195 9.3736 8.61866 9.37363 8.70622C9.37366 8.79379 9.35644 8.8805 9.32296 8.96141C9.28948 9.04233 9.24039 9.11585 9.17849 9.17779C8.57374 9.7825 7.75969 10.1316 6.90474 10.153C6.04979 10.1743 5.21933 9.86624 4.58516 9.29246L4.46383 9.17779L2.57849 7.29179C1.95359 6.6667 1.60254 5.81901 1.60254 4.93513C1.60254 4.05124 1.95359 3.20288 2.57849 2.57779Z" fill="black"/>
</svg>
