<svg width="16" height="16" viewBox="0 0 16 16" fill="none" xmlns="http://www.w3.org/2000/svg">
<path d="M0.34123 7.90159C0.340855 9.2459 0.694855 10.5585 1.36798 11.7155L0.276855 15.6685L4.35386 14.6078C5.4815 15.2169 6.74494 15.536 8.02886 15.5361H8.03223C12.2707 15.5361 15.7209 12.1139 15.7227 7.90761C15.7235 5.86934 14.9242 3.95269 13.4721 2.51071C12.0202 1.06885 10.0893 0.274368 8.03192 0.273438C3.79298 0.273438 0.343043 3.69545 0.341293 7.90159" fill="url(#paint0_linear_1809_489)"/>
<path d="M0.066875 7.90177C0.0664375 9.29445 0.433125 10.654 1.13025 11.8524L0 15.9471L4.22319 14.8484C5.38681 15.4779 6.69694 15.8098 8.03006 15.8103H8.0335C12.424 15.8103 15.9981 12.265 16 7.90809C16.0008 5.79659 15.1727 3.81104 13.6687 2.3174C12.1646 0.823938 10.1646 0.000868217 8.0335 0C3.64225 0 0.068625 3.54481 0.066875 7.90177ZM2.58194 11.646L2.42425 11.3976C1.76137 10.3518 1.4115 9.14326 1.412 7.90226C1.41337 4.28087 4.38363 1.33457 8.036 1.33457C9.80475 1.33532 11.467 2.01947 12.7172 3.26078C13.9674 4.5022 14.6554 6.15243 14.6549 7.9076C14.6533 11.529 11.683 14.4757 8.0335 14.4757H8.03088C6.84256 14.475 5.67712 14.1584 4.66075 13.56L4.41888 13.4177L1.91275 14.0696L2.58194 11.646Z" fill="url(#paint1_linear_1809_489)"/>
<path d="M6.04223 4.59587C5.8931 4.267 5.73616 4.26036 5.59435 4.2546C5.47823 4.24963 5.34548 4.25001 5.21285 4.25001C5.0801 4.25001 4.86441 4.29956 4.6821 4.49708C4.4996 4.69478 3.98535 5.17255 3.98535 6.14427C3.98535 7.11599 4.69866 8.05515 4.7981 8.18706C4.89766 8.31872 6.17516 10.3766 8.19841 11.1683C9.87991 11.8263 10.2221 11.6954 10.587 11.6624C10.952 11.6295 11.7648 11.1848 11.9306 10.7236C12.0965 10.2624 12.0965 9.86712 12.0468 9.78452C11.997 9.70222 11.8643 9.6528 11.6652 9.55407C11.4662 9.45534 10.4875 8.97745 10.305 8.91153C10.1225 8.84567 9.98985 8.8128 9.8571 9.01056C9.72435 9.20802 9.34316 9.6528 9.22698 9.78452C9.11091 9.91655 8.99473 9.93298 8.79573 9.83419C8.59654 9.73509 7.95548 9.52678 7.19491 8.85398C6.60316 8.33044 6.20366 7.68393 6.08754 7.48616C5.97141 7.2887 6.0751 7.18167 6.17491 7.08325C6.26435 6.99475 6.37404 6.85261 6.47366 6.73732C6.57291 6.62198 6.60604 6.53968 6.67241 6.40796C6.73885 6.27611 6.7056 6.16077 6.65591 6.06198C6.60604 5.96318 6.21923 4.98638 6.04223 4.59587Z" fill="white"/>
<defs>
<linearGradient id="paint0_linear_1809_489" x1="772.568" y1="1539.78" x2="772.568" y2="0.273438" gradientUnits="userSpaceOnUse">
<stop stop-color="#1FAF38"/>
<stop offset="1" stop-color="#60D669"/>
</linearGradient>
<linearGradient id="paint1_linear_1809_489" x1="800" y1="1594.71" x2="800" y2="0" gradientUnits="userSpaceOnUse">
<stop stop-color="#F9F9F9"/>
<stop offset="1" stop-color="white"/>
</linearGradient>
</defs>
</svg>
